<mxfile host="app.diagrams.net" agent="Mozilla/5.0 (Windows NT 10.0; Win64; x64) AppleWebKit/537.36 (KHTML, like Gecko) Chrome/138.0.0.0 Safari/537.36" version="28.0.6">
  <diagram name="Page-1" id="-H_mtQnk-PTXWXPvYvuk">
    <mxGraphModel dx="1348" dy="791" grid="1" gridSize="10" guides="1" tooltips="1" connect="1" arrows="1" fold="1" page="1" pageScale="1" pageWidth="1169" pageHeight="827" background="#ffffff" math="0" shadow="0">
      <root>
        <mxCell id="0" />
        <mxCell id="1" parent="0" />
        <mxCell id="M3Q7F0y20DK5DFM-mO5N-29" style="edgeStyle=orthogonalEdgeStyle;rounded=0;orthogonalLoop=1;jettySize=auto;html=1;" parent="1" source="zA23MoTUsTF4_91t8viU-3" target="M3Q7F0y20DK5DFM-mO5N-20" edge="1">
          <mxGeometry relative="1" as="geometry" />
        </mxCell>
        <mxCell id="zA23MoTUsTF4_91t8viU-3" value="pymongo-api" style="rounded=1;whiteSpace=wrap;html=1;" parent="1" vertex="1">
          <mxGeometry x="250" y="100" width="120" height="60" as="geometry" />
        </mxCell>
        <mxCell id="M3Q7F0y20DK5DFM-mO5N-11" value="shard-1" style="swimlane;whiteSpace=wrap;html=1;fillColor=#bac8d3;strokeColor=#23445d;" parent="1" vertex="1">
          <mxGeometry x="160" y="270" width="110" height="310" as="geometry">
            <mxRectangle x="110" y="200" width="140" height="30" as="alternateBounds" />
          </mxGeometry>
        </mxCell>
        <mxCell id="zA23MoTUsTF4_91t8viU-2" value="primamary&lt;br&gt;1-1" style="shape=cylinder3;whiteSpace=wrap;html=1;boundedLbl=1;backgroundOutline=1;size=15;fillColor=#f8cecc;strokeColor=#b85450;" parent="M3Q7F0y20DK5DFM-mO5N-11" vertex="1">
          <mxGeometry x="20" y="40" width="70" height="80" as="geometry" />
        </mxCell>
        <mxCell id="M3Q7F0y20DK5DFM-mO5N-37" value="secondary&lt;br&gt;1-2" style="shape=cylinder3;whiteSpace=wrap;html=1;boundedLbl=1;backgroundOutline=1;size=15;fillColor=#d5e8d4;strokeColor=#82b366;" parent="M3Q7F0y20DK5DFM-mO5N-11" vertex="1">
          <mxGeometry x="20" y="130" width="70" height="80" as="geometry" />
        </mxCell>
        <mxCell id="M3Q7F0y20DK5DFM-mO5N-38" value="secondary&lt;br&gt;1-3" style="shape=cylinder3;whiteSpace=wrap;html=1;boundedLbl=1;backgroundOutline=1;size=15;fillColor=#d5e8d4;strokeColor=#82b366;" parent="M3Q7F0y20DK5DFM-mO5N-11" vertex="1">
          <mxGeometry x="20" y="220" width="70" height="80" as="geometry" />
        </mxCell>
        <mxCell id="M3Q7F0y20DK5DFM-mO5N-16" value="shard-2" style="swimlane;whiteSpace=wrap;html=1;fillColor=#bac8d3;strokeColor=#23445d;" parent="1" vertex="1">
          <mxGeometry x="350" y="270" width="110" height="310" as="geometry">
            <mxRectangle x="110" y="200" width="140" height="30" as="alternateBounds" />
          </mxGeometry>
        </mxCell>
        <mxCell id="M3Q7F0y20DK5DFM-mO5N-17" value="primamary&lt;br&gt;2-1" style="shape=cylinder3;whiteSpace=wrap;html=1;boundedLbl=1;backgroundOutline=1;size=15;fillColor=#f8cecc;strokeColor=#b85450;" parent="M3Q7F0y20DK5DFM-mO5N-16" vertex="1">
          <mxGeometry x="20" y="40" width="70" height="80" as="geometry" />
        </mxCell>
        <mxCell id="M3Q7F0y20DK5DFM-mO5N-39" value="secondary&lt;br&gt;2-2" style="shape=cylinder3;whiteSpace=wrap;html=1;boundedLbl=1;backgroundOutline=1;size=15;fillColor=#d5e8d4;strokeColor=#82b366;" parent="M3Q7F0y20DK5DFM-mO5N-16" vertex="1">
          <mxGeometry x="20" y="130" width="70" height="80" as="geometry" />
        </mxCell>
        <mxCell id="M3Q7F0y20DK5DFM-mO5N-40" value="secondary&lt;br&gt;2-3" style="shape=cylinder3;whiteSpace=wrap;html=1;boundedLbl=1;backgroundOutline=1;size=15;fillColor=#d5e8d4;strokeColor=#82b366;" parent="M3Q7F0y20DK5DFM-mO5N-16" vertex="1">
          <mxGeometry x="20" y="220" width="70" height="80" as="geometry" />
        </mxCell>
        <mxCell id="M3Q7F0y20DK5DFM-mO5N-20" value="mongos-router" style="rounded=1;whiteSpace=wrap;html=1;fillColor=#dae8fc;strokeColor=#6c8ebf;" parent="1" vertex="1">
          <mxGeometry x="270" y="210" width="80" height="40" as="geometry" />
        </mxCell>
        <mxCell id="M3Q7F0y20DK5DFM-mO5N-30" value="" style="endArrow=classic;startArrow=classic;html=1;rounded=0;entryX=0;entryY=0.5;entryDx=0;entryDy=0;exitX=0.5;exitY=0;exitDx=0;exitDy=0;" parent="1" source="M3Q7F0y20DK5DFM-mO5N-11" target="M3Q7F0y20DK5DFM-mO5N-20" edge="1">
          <mxGeometry width="50" height="50" relative="1" as="geometry">
            <mxPoint x="210" y="250" as="sourcePoint" />
            <mxPoint x="260" y="200" as="targetPoint" />
            <Array as="points">
              <mxPoint x="215" y="230" />
            </Array>
          </mxGeometry>
        </mxCell>
        <mxCell id="M3Q7F0y20DK5DFM-mO5N-31" value="" style="endArrow=classic;startArrow=classic;html=1;rounded=0;exitX=1;exitY=0.5;exitDx=0;exitDy=0;entryX=0.5;entryY=0;entryDx=0;entryDy=0;" parent="1" source="M3Q7F0y20DK5DFM-mO5N-20" target="M3Q7F0y20DK5DFM-mO5N-16" edge="1">
          <mxGeometry width="50" height="50" relative="1" as="geometry">
            <mxPoint x="400" y="210" as="sourcePoint" />
            <mxPoint x="450" y="160" as="targetPoint" />
            <Array as="points">
              <mxPoint x="405" y="230" />
            </Array>
          </mxGeometry>
        </mxCell>
        <mxCell id="M3Q7F0y20DK5DFM-mO5N-35" value="" style="endArrow=classic;startArrow=classic;html=1;rounded=0;entryX=0.5;entryY=1;entryDx=0;entryDy=0;exitX=0.5;exitY=0;exitDx=0;exitDy=0;" parent="1" source="M3Q7F0y20DK5DFM-mO5N-36" target="M3Q7F0y20DK5DFM-mO5N-20" edge="1">
          <mxGeometry width="50" height="50" relative="1" as="geometry">
            <mxPoint x="310" y="430" as="sourcePoint" />
            <mxPoint x="340" y="290" as="targetPoint" />
          </mxGeometry>
        </mxCell>
        <mxCell id="M3Q7F0y20DK5DFM-mO5N-36" value="config-srv" style="rounded=1;whiteSpace=wrap;html=1;fillColor=#fad7ac;strokeColor=#b46504;" parent="1" vertex="1">
          <mxGeometry x="270" y="600" width="80" height="40" as="geometry" />
        </mxCell>
        <mxCell id="M3Q7F0y20DK5DFM-mO5N-41" value="" style="endArrow=classic;startArrow=classic;html=1;rounded=0;entryX=0;entryY=0.5;entryDx=0;entryDy=0;exitX=0.5;exitY=1;exitDx=0;exitDy=0;" parent="1" source="M3Q7F0y20DK5DFM-mO5N-11" target="M3Q7F0y20DK5DFM-mO5N-36" edge="1">
          <mxGeometry width="50" height="50" relative="1" as="geometry">
            <mxPoint x="170" y="680" as="sourcePoint" />
            <mxPoint x="220" y="630" as="targetPoint" />
            <Array as="points">
              <mxPoint x="215" y="620" />
            </Array>
          </mxGeometry>
        </mxCell>
        <mxCell id="M3Q7F0y20DK5DFM-mO5N-42" value="" style="endArrow=classic;startArrow=classic;html=1;rounded=0;entryX=0.5;entryY=1;entryDx=0;entryDy=0;exitX=1;exitY=0.5;exitDx=0;exitDy=0;" parent="1" source="M3Q7F0y20DK5DFM-mO5N-36" target="M3Q7F0y20DK5DFM-mO5N-16" edge="1">
          <mxGeometry width="50" height="50" relative="1" as="geometry">
            <mxPoint x="410" y="690" as="sourcePoint" />
            <mxPoint x="460" y="640" as="targetPoint" />
            <Array as="points">
              <mxPoint x="405" y="620" />
            </Array>
          </mxGeometry>
        </mxCell>
      </root>
    </mxGraphModel>
  </diagram>
</mxfile>
